<svg width="435" height="224" xmlns="http://www.w3.org/2000/svg" style=""><g stroke="#425a70" stroke-width="8" fill="none" fill-rule="evenodd"><path d="M408.3 45.4c-6.2 0-11.3-1.95-15.3-5.85-4-3.9-6-8.75-6-14.55 0-6.2 2-11.25 6-15.15 4-3.9 9.1-5.85 15.3-5.85 6.4 0 11.65 1.95 15.75 5.85 4.1 3.9 6.15 8.95 6.15 15.15 0 5.8-2.05 10.65-6.15 14.55-4.1 3.9-9.35 5.85-15.75 5.85z" class="RYSbNNZY_0"></path><path d="M391.5 67.6h33.6v148.2h-33.6z" class="RYSbNNZY_1"></path><path d="M324.8 5.8h33.6v210h-33.6z" class="RYSbNNZY_2"></path><path d="M248.2 219.1c-15.8 0-29.7-3.2-41.7-9.6-12-6.4-21.25-15.45-27.75-27.15S169 157.1 169 141.7c0-15.2 3.3-28.65 9.9-40.35 6.6-11.7 15.85-20.8 27.75-27.3s25.65-9.75 41.25-9.75c21.6 0 40.3 7.6 56.1 22.8L283.6 109c-4.4-4.4-9.7-7.85-15.9-10.35-6.2-2.5-12.6-3.75-19.2-3.75-13.6 0-24.65 4.35-33.15 13.05-8.5 8.7-12.75 19.95-12.75 33.75 0 14 4.25 25.3 12.75 33.9 8.5 8.6 19.55 12.9 33.15 12.9 7.2 0 14-1.3 20.4-3.9 6.4-2.6 11.8-6.4 16.2-11.4l20.7 22.5c-8.2 8-17 13.9-26.4 17.7-9.4 3.8-19.8 5.7-31.2 5.7z" class="RYSbNNZY_3"></path><path d="M131.7 67.6h36L105 215.8H69L6 67.6h36.6l20.7 50.7L87 181l24-62.7z" class="RYSbNNZY_4"></path></g><style data-made-with="vivus-instant">.RYSbNNZY_0{stroke-dasharray:135 137;stroke-dashoffset:136;animation:RYSbNNZY_draw_0 3400ms ease-out 0ms infinite,RYSbNNZY_fade 3400ms linear 0ms infinite;}.RYSbNNZY_1{stroke-dasharray:364 366;stroke-dashoffset:365;animation:RYSbNNZY_draw_1 3400ms ease-out 0ms infinite,RYSbNNZY_fade 3400ms linear 0ms infinite;}.RYSbNNZY_2{stroke-dasharray:488 490;stroke-dashoffset:489;animation:RYSbNNZY_draw_2 3400ms ease-out 0ms infinite,RYSbNNZY_fade 3400ms linear 0ms infinite;}.RYSbNNZY_3{stroke-dasharray:663 665;stroke-dashoffset:664;animation:RYSbNNZY_draw_3 3400ms ease-out 0ms infinite,RYSbNNZY_fade 3400ms linear 0ms infinite;}.RYSbNNZY_4{stroke-dasharray:675 677;stroke-dashoffset:676;animation:RYSbNNZY_draw_4 3400ms ease-out 0ms infinite,RYSbNNZY_fade 3400ms linear 0ms infinite;}@keyframes RYSbNNZY_draw{100%{stroke-dashoffset:0;}}@keyframes RYSbNNZY_fade{0%{stroke-opacity:1;}88.23529411764706%{stroke-opacity:1;}100%{stroke-opacity:0;}}@keyframes RYSbNNZY_draw_0{0%{stroke-dashoffset: 136}39.21568627450981%{ stroke-dashoffset: 0;}100%{ stroke-dashoffset: 0;}}@keyframes RYSbNNZY_draw_1{4.901960784313726%{stroke-dashoffset: 365}44.117647058823536%{ stroke-dashoffset: 0;}100%{ stroke-dashoffset: 0;}}@keyframes RYSbNNZY_draw_2{9.803921568627452%{stroke-dashoffset: 489}49.01960784313726%{ stroke-dashoffset: 0;}100%{ stroke-dashoffset: 0;}}@keyframes RYSbNNZY_draw_3{14.705882352941178%{stroke-dashoffset: 664}53.92156862745099%{ stroke-dashoffset: 0;}100%{ stroke-dashoffset: 0;}}@keyframes RYSbNNZY_draw_4{19.607843137254903%{stroke-dashoffset: 676}58.82352941176471%{ stroke-dashoffset: 0;}100%{ stroke-dashoffset: 0;}}</style></svg>
